<svg width="32" height="32" viewBox="0 0 32 32" fill="none" xmlns="http://www.w3.org/2000/svg">
<g id="Group 5394">
<g id="Group 5395">
<path id="Vector" d="M9 23.0635H23" stroke="white" stroke-width="1.2" stroke-linecap="round" stroke-linejoin="round"/>
<path id="Vector_2" d="M9 12.2516V13.0239C9 13.6384 9.24583 14.2276 9.68342 14.6621C10.121 15.0966 10.7145 15.3407 11.3333 15.3407C11.9522 15.3407 12.5457 15.0966 12.9832 14.6621C13.4208 14.2276 13.6667 13.6384 13.6667 13.0239M9 12.2516H13.6667V13.0239M9 12.2516H23M9 12.2516L10.5556 9.1626H21.4444L23 12.2516M13.6667 13.0239C13.6667 13.6384 13.9125 14.2276 14.3501 14.6621C14.7877 15.0966 15.3812 15.3407 16 15.3407C16.6188 15.3407 17.2123 15.0966 17.6499 14.6621C18.0875 14.2276 18.3333 13.6384 18.3333 13.0239C18.3333 13.6384 18.5792 14.2276 19.0168 14.6621C19.4543 15.0966 20.0478 15.3407 20.6667 15.3407C21.2855 15.3407 21.879 15.0966 22.3166 14.6621C22.7542 14.2276 23 13.6384 23 13.0239V12.2516" stroke="white" stroke-width="1.2" stroke-linecap="round" stroke-linejoin="round"/>
<path id="Vector_3" d="M10.5557 23.0633V15.2249" stroke="white" stroke-width="1.2" stroke-linecap="round" stroke-linejoin="round"/>
<path id="Vector_4" d="M21.4443 23.0633V15.2249" stroke="white" stroke-width="1.2" stroke-linecap="round" stroke-linejoin="round"/>
<path id="Vector_5" d="M13.6665 23.0633V19.9742C13.6665 19.5646 13.8304 19.1717 14.1221 18.8821C14.4138 18.5924 14.8095 18.4297 15.2221 18.4297H16.7776C17.1902 18.4297 17.5858 18.5924 17.8776 18.8821C18.1693 19.1717 18.3332 19.5646 18.3332 19.9742V23.0633" stroke="white" stroke-width="1.2" stroke-linecap="round" stroke-linejoin="round"/>
</g>
</g>
</svg>
